# xmcd
#
# Track frame offsets:
#	150
#	33981
#	67316
#	107140
#	152393
#	182456
#	206103
#	241507
#	272957
#
# Disc length: 4173 seconds
#
# Revision: 0
# Processed by: cddbd v1.5.2PL0 Copyright (c) Steve Scherf et al.
# Submitted via: audiograbber 1.83.01
#
DISCID=77104b09
DTITLE=Grateful Dead - 94-12-19 Los Angeles Sports Arena, Los Angeles CA
DYEAR=1900
DGENRE=
TTITLE0=Picasso Moon
TTITLE1=Stagger Lee
TTITLE2=Little Red Rooster
TTITLE3=Ramble On Rose
TTITLE4=Broken Arrow
TTITLE5=When I Paint My Masterpiece
TTITLE6=So Many Roads
TTITLE7=Easy Answers
TTITLE8=Deal
EXTD=
EXTT0=
EXTT1=
EXTT2=
EXTT3=
EXTT4=
EXTT5=
EXTT6=
EXTT7=
EXTT8=
PLAYORDER=
